<svg id="Layer_1" data-name="Layer 1" xmlns="http://www.w3.org/2000/svg" viewBox="0 0 126 147.41"><defs><style>.cls-1{fill:#ff7900;}</style></defs><title>logo svg</title><path class="cls-1" d="M91.48,60.79a72.72,72.72,0,0,1,24.69,4.09,58.72,58.72,0,0,1,19.94,11.7,53.66,53.66,0,0,1,13.32,18.75,62.17,62.17,0,0,1,4.83,25,61.9,61.9,0,0,1-4.83,25.11,54,54,0,0,1-13.32,18.67,59.2,59.2,0,0,1-19.94,11.71,73.39,73.39,0,0,1-24.69,4.06V153.29a61.67,61.67,0,0,0,14.85-1.8,40,40,0,0,0,13-5.69,29.17,29.17,0,0,0,9.25-10.16A31.14,31.14,0,0,0,132,120.37q0-9-3.48-15.27a29,29,0,0,0-9.25-10.19,40.24,40.24,0,0,0-13-5.69,61.66,61.66,0,0,0-14.85-1.77Z" transform="translate(-28.27 -32.51)"/><path class="cls-1" d="M91.05,151.63a72.72,72.72,0,0,1-24.69-4.09,58.72,58.72,0,0,1-19.94-11.7A53.66,53.66,0,0,1,33.1,117.09a62.17,62.17,0,0,1-4.83-25A61.9,61.9,0,0,1,33.1,66.95,54,54,0,0,1,46.42,48.28,59.2,59.2,0,0,1,66.36,36.57a73.39,73.39,0,0,1,24.69-4.06V59.13a61.67,61.67,0,0,0-14.85,1.8,40,40,0,0,0-13,5.69A29.17,29.17,0,0,0,54,76.78a31.14,31.14,0,0,0-3.48,15.27q0,9,3.48,15.27a29,29,0,0,0,9.25,10.19,40.24,40.24,0,0,0,13,5.69A61.66,61.66,0,0,0,91.05,125Z" transform="translate(-28.27 -32.51)"/></svg>